# xmcd CD database file
#
# Track frame offsets:
#	150
#	5227
#	22350
#	42652
#	62977
#	81652
#	93172
#	98705
#	111810
#	129930
#	153697
#	166260
#	184095
#	196455
#	215707
#	233975
#	250125
#	273212
#
# Disc length: 3861 seconds
#
# Revision: 3
# Processed by: cddbd v1.5PL3 Copyright (c) Steve Scherf et al.
# Submitted via: CDex 1.51
#
DISCID=090f1312
DTITLE=Chip Davis - Impressions
DYEAR=1993
DGENRE=New Age
TTITLE0=The Call of St. Hubert
TTITLE1=Midi Didi
TTITLE2=Teddys and Hearts
TTITLE3=Serenity
TTITLE4=Carrie
TTITLE5=Hayin'
TTITLE6=Mommie Birthday
TTITLE7=The Bird and the Bee
TTITLE8=The Sign of Love
TTITLE9=A Winter's Day
TTITLE10=First Ring
TTITLE11=Kallista
TTITLE12=National Anthem
TTITLE13=Fugue
TTITLE14=Colorado Spoonin'
TTITLE15=Harper Birthday
TTITLE16=Malibu Pee Wee
TTITLE17=Auld Lang Syne
EXTD=YEAR: 1993
EXTT0=
EXTT1=
EXTT2=
EXTT3=
EXTT4=
EXTT5=
EXTT6=
EXTT7=
EXTT8=
EXTT9=
EXTT10=
EXTT11=
EXTT12=
EXTT13=
EXTT14=
EXTT15=
EXTT16=
EXTT17=
PLAYORDER=
